<svg xmlns="http://www.w3.org/2000/svg" width="612" viewBox="0 0 612 792" height="792" version="1.0"><defs><clipPath id="a"><path d="M 150.425781 240.425781 L 461.675781 240.425781 L 461.675781 551.675781 L 150.425781 551.675781 Z M 150.425781 240.425781"/></clipPath></defs><g clip-path="url(#a)"><path fill="#231F20" d="M 222.253906 240.425781 C 221.464844 240.425781 220.6875 240.503906 219.917969 240.65625 C 219.144531 240.808594 218.398438 241.035156 217.671875 241.335938 C 216.945312 241.640625 216.253906 242.007812 215.601562 242.445312 C 214.949219 242.882812 214.34375 243.378906 213.789062 243.933594 C 213.230469 244.488281 212.734375 245.09375 212.300781 245.746094 C 211.863281 246.402344 211.492188 247.089844 211.191406 247.816406 C 210.890625 248.542969 210.664062 249.292969 210.511719 250.0625 C 210.359375 250.832031 210.28125 251.609375 210.28125 252.398438 L 210.28125 300.28125 L 162.398438 300.28125 C 161.609375 300.28125 160.832031 300.359375 160.0625 300.511719 C 159.289062 300.664062 158.542969 300.894531 157.816406 301.195312 C 157.089844 301.496094 156.398438 301.863281 155.746094 302.300781 C 155.09375 302.738281 154.488281 303.234375 153.933594 303.789062 C 153.375 304.34375 152.878906 304.949219 152.441406 305.601562 C 152.007812 306.257812 151.636719 306.945312 151.335938 307.671875 C 151.035156 308.398438 150.808594 309.148438 150.65625 309.917969 C 150.503906 310.6875 150.425781 311.46875 150.425781 312.253906 L 150.425781 539.703125 C 150.425781 540.492188 150.503906 541.269531 150.65625 542.039062 C 150.808594 542.8125 151.035156 543.558594 151.335938 544.285156 C 151.636719 545.011719 152.007812 545.703125 152.445312 546.355469 C 152.878906 547.007812 153.378906 547.613281 153.933594 548.167969 C 154.488281 548.726562 155.09375 549.222656 155.746094 549.660156 C 156.398438 550.09375 157.089844 550.464844 157.816406 550.765625 C 158.542969 551.066406 159.289062 551.292969 160.0625 551.445312 C 160.832031 551.597656 161.609375 551.675781 162.398438 551.675781 L 389.847656 551.675781 C 390.636719 551.675781 391.414062 551.597656 392.183594 551.445312 C 392.957031 551.292969 393.703125 551.066406 394.429688 550.765625 C 395.15625 550.464844 395.847656 550.09375 396.5 549.65625 C 397.152344 549.222656 397.757812 548.722656 398.3125 548.167969 C 398.871094 547.613281 399.367188 547.007812 399.800781 546.355469 C 400.238281 545.703125 400.609375 545.011719 400.910156 544.285156 C 401.210938 543.558594 401.4375 542.8125 401.589844 542.039062 C 401.742188 541.269531 401.820312 540.492188 401.820312 539.703125 L 401.820312 491.820312 L 449.703125 491.820312 C 450.492188 491.820312 451.269531 491.742188 452.039062 491.589844 C 452.8125 491.4375 453.558594 491.210938 454.285156 490.90625 C 455.011719 490.605469 455.703125 490.238281 456.355469 489.800781 C 457.007812 489.363281 457.613281 488.867188 458.167969 488.3125 C 458.726562 487.757812 459.222656 487.152344 459.660156 486.5 C 460.09375 485.84375 460.464844 485.15625 460.765625 484.429688 C 461.066406 483.703125 461.292969 482.953125 461.445312 482.183594 C 461.597656 481.414062 461.675781 480.636719 461.675781 479.847656 L 461.675781 252.398438 C 461.675781 251.609375 461.597656 250.832031 461.445312 250.0625 C 461.292969 249.289062 461.066406 248.542969 460.765625 247.816406 C 460.464844 247.089844 460.09375 246.398438 459.65625 245.746094 C 459.21875 245.09375 458.722656 244.488281 458.167969 243.933594 C 457.613281 243.375 457.007812 242.878906 456.355469 242.441406 C 455.699219 242.007812 455.011719 241.636719 454.285156 241.335938 C 453.558594 241.035156 452.8125 240.808594 452.039062 240.65625 C 451.269531 240.503906 450.492188 240.425781 449.703125 240.425781 Z M 234.222656 264.367188 L 437.734375 264.367188 L 437.734375 467.878906 L 401.820312 467.878906 L 401.820312 312.253906 C 401.820312 311.464844 401.742188 310.6875 401.589844 309.917969 C 401.4375 309.144531 401.207031 308.398438 400.90625 307.671875 C 400.605469 306.945312 400.238281 306.253906 399.800781 305.601562 C 399.363281 304.949219 398.867188 304.34375 398.3125 303.789062 C 397.757812 303.230469 397.152344 302.734375 396.5 302.300781 C 395.84375 301.863281 395.15625 301.492188 394.429688 301.191406 C 393.703125 300.890625 392.953125 300.664062 392.183594 300.511719 C 391.414062 300.359375 390.632812 300.28125 389.847656 300.28125 L 234.222656 300.28125 Z M 174.367188 324.222656 L 377.878906 324.222656 L 377.878906 527.734375 L 174.367188 527.734375 Z M 174.367188 324.222656"/></g></svg>